<svg width="24" height="24" viewBox="0 0 24 24" fill="none" xmlns="http://www.w3.org/2000/svg">
<g id="Icon" clip-path="url(#clip0_183_1019)">
<path id="Vector" d="M12.3655 13.366L14.1404 14.391C13.0808 16.738 12.9694 19.4037 13.8294 21.831C13.226 21.9439 12.6134 22.0005 11.9995 22C10.5826 22.0022 9.18148 21.7022 7.8897 21.12L12.3655 13.366ZM15.8823 15.398L20.1161 17.842C19.0132 19.3728 17.5011 20.5616 15.7533 21.272C15.0876 19.4745 15.0905 17.4976 15.7613 15.702L15.8823 15.398ZM8.85965 11.342L10.6346 12.366L6.15879 20.116C4.50317 18.9235 3.25081 17.2541 2.56897 15.331C4.98517 14.8848 7.15178 13.5627 8.65366 11.618L8.85965 11.342ZM21.905 10.616C21.968 11.069 22 11.531 22 12C22.0022 13.417 21.7022 14.8182 21.12 16.11L16.8842 13.665C18.0768 12.0909 19.8103 11.0146 21.75 10.644L21.905 10.616ZM2.88096 7.891L7.11574 10.336C5.89019 11.9534 4.09515 13.0438 2.095 13.386C2.03168 12.9267 1.99994 12.4636 2 12C2 10.535 2.31498 9.144 2.87996 7.89L2.88096 7.891ZM17.8412 3.88301C19.4968 5.07553 20.7492 6.74485 21.431 8.668C19.0144 9.11511 16.8476 10.4378 15.3453 12.383L15.1403 12.659L13.3654 11.634L17.8412 3.88401V3.88301ZM11.9995 2.00001C13.4644 2.00001 14.8553 2.31501 16.1093 2.88001L11.6335 10.634L9.8586 9.61C10.9187 7.26243 11.0302 4.59585 10.1696 2.16801C10.773 2.05552 11.3856 1.99927 11.9995 2.00001ZM8.24668 2.73001C8.91136 4.5278 8.90781 6.50461 8.23668 8.3L8.11669 8.603L3.8829 6.158C4.94309 4.68698 6.38199 3.53069 8.04669 2.81201L8.24668 2.72901V2.73001Z" fill="#A4A4A4"/>
</g>
<defs>
<clipPath id="clip0_183_1019">
<rect width="24" height="24" fill="white"/>
</clipPath>
</defs>
</svg>
