<svg width="24" height="24" viewBox="0 0 24 24" fill="none" xmlns="http://www.w3.org/2000/svg">
<g id="Icon" clip-path="url(#clip0_183_1035)">
<path id="Vector" d="M21 7.99927C21.5304 7.99927 22.0391 8.20999 22.4142 8.58508C22.7893 8.96017 23 9.4689 23 9.99936V13.9996C23 14.53 22.7893 15.0387 22.4142 15.4138C22.0391 15.7889 21.5304 15.9997 21 15.9997H19.938C19.6942 17.9331 18.7533 19.711 17.2917 20.9999C15.8302 22.2888 13.9486 23 12 23V20.9999C13.5913 20.9999 15.1174 20.3677 16.2426 19.2425C17.3679 18.1172 18 16.591 18 14.9996V8.99931C18 7.40794 17.3679 5.88174 16.2426 4.75647C15.1174 3.63119 13.5913 2.99902 12 2.99902C10.4087 2.99902 8.88258 3.63119 7.75736 4.75647C6.63214 5.88174 6 7.40794 6 8.99931V15.9997H3C2.46957 15.9997 1.96086 15.7889 1.58579 15.4138C1.21071 15.0387 1 14.53 1 13.9996V9.99936C1 9.4689 1.21071 8.96017 1.58579 8.58508C1.96086 8.20999 2.46957 7.99927 3 7.99927H4.062C4.30603 6.06607 5.24708 4.28836 6.70857 2.9997C8.17007 1.71104 10.0516 1 12 1C13.9484 1 15.8299 1.71104 17.2914 2.9997C18.7529 4.28836 19.694 6.06607 19.938 7.99927H21ZM7.76 15.7846L8.82 14.0886C9.77308 14.6856 10.8754 15.0014 12 14.9996C13.1246 15.0014 14.2269 14.6856 15.18 14.0886L16.24 15.7846C14.9693 16.5808 13.4995 17.002 12 16.9997C10.5005 17.002 9.03074 16.5808 7.76 15.7846Z" fill="#A4A4A4"/>
</g>
<defs>
<clipPath id="clip0_183_1035">
<rect width="24" height="24" fill="white"/>
</clipPath>
</defs>
</svg>
