<svg width="24" height="24" viewBox="0 0 24 24" fill="none" xmlns="http://www.w3.org/2000/svg">
<g id="Icon" clip-path="url(#clip0_183_1005)">
<path id="Vector" d="M12.4997 24C10.9968 23.9999 9.52856 23.5378 8.28541 22.6736C7.04226 21.8094 6.08151 20.583 5.52773 19.1534C4.97395 17.7238 4.85268 16.1569 5.17965 14.656C5.50662 13.155 6.26674 11.7892 7.36146 10.7355C8.70352 9.44316 11.9997 7.11628 11.4996 2C17.4999 6.09302 20.5 10.186 14.4998 16.3256C15.4998 16.3256 16.9999 16.3256 19.5 13.7981C19.77 14.5891 20 15.4394 20 16.3256C20 18.361 19.2098 20.313 17.8032 21.7522C16.3966 23.1914 14.4889 24 12.4997 24Z" fill="#A4A4A4"/>
</g>
<defs>
<clipPath id="clip0_183_1005">
<rect width="24" height="24" fill="white"/>
</clipPath>
</defs>
</svg>
