<svg width="24" height="24" viewBox="0 0 24 24" fill="none" xmlns="http://www.w3.org/2000/svg">
<g id="Icon" clip-path="url(#clip0_183_1025)">
<path id="Vector" d="M11.6132 2C14.1627 2 16.6079 3.01281 18.4107 4.81563C20.2135 6.61845 21.2263 9.0636 21.2263 11.6132C21.2287 13.1076 20.8811 14.5818 20.2114 15.9178L22.7037 18.4112C22.8934 18.601 23 18.8583 23 19.1266C23 19.3949 22.8934 19.6523 22.7037 19.842L19.842 22.7037C19.6523 22.8934 19.3949 23 19.1266 23C18.8583 23 18.601 22.8934 18.4112 22.7037L15.9178 20.2114C14.5818 20.8811 13.1076 21.2287 11.6132 21.2263C9.0636 21.2263 6.61845 20.2135 4.81563 18.4107C3.01281 16.6079 2 14.1627 2 11.6132C2 9.0636 3.01281 6.61845 4.81563 4.81563C6.61845 3.01281 9.0636 2 11.6132 2ZM16.9793 15.5475L15.5485 16.9783L19.1266 20.5554L20.5575 19.1246L16.9793 15.5475ZM18.8655 9.36976L9.36976 18.8655C10.0781 19.0841 10.832 19.2025 11.6132 19.2025C12.5619 19.2038 13.5025 19.0266 14.3858 18.6804L13.4022 17.6948C13.2125 17.505 13.106 17.2477 13.106 16.9793C13.106 16.711 13.2125 16.4537 13.4022 16.2639L16.2639 13.4022C16.4537 13.2125 16.711 13.106 16.9793 13.106C17.2477 13.106 17.505 13.2125 17.6948 13.4022L18.6804 14.3858C19.0266 13.5025 19.2038 12.5619 19.2025 11.6132C19.2025 10.832 19.0841 10.0791 18.8655 9.36976Z" fill="#A4A4A4"/>
</g>
<defs>
<clipPath id="clip0_183_1025">
<rect width="24" height="24" fill="white"/>
</clipPath>
</defs>
</svg>
